<svg height="512" viewBox="0 0 64 64" width="512" xmlns="http://www.w3.org/2000/svg" fill="#c9c9c9"><g id="Flat"><g><path d="m0 43.333v-38.75c0-.688.588-1.25 1.306-1.25h61.388c.718 0 1.306.562 1.306 1.25v38.75z" /><path d="m64 43.333v5.333c0 .734-.588 1.334-1.306 1.334h-61.388c-.718 0-1.306-.6-1.306-1.333v-5.333h64z" fill="#d8d8d8"/><path d="m22.667 59.333h18.666l-1.333-9.333h-16z" fill="#c9c9c9"/><path d="m40 50h-16l-.831 5.817 17.142-3.642z" fill="#aaa"/><path d="m18 59.333h28v1.333h-28z" fill="#d8d8d8" transform="matrix(-1 0 0 -1 64 120)" /><path d="m24 50h16l.09.63-16.505 2.278z" fill="#939393"/><path d="m2.233 5.566h59.535v35.535h-59.535z" fill="#4055C0"/></g></g></svg>