<svg height="512" viewBox="0 0 24 24" width="512" xmlns="http://www.w3.org/2000/svg">
    <path d="m3.625 23h9.75a2.629 2.629 0 0 0 2.625-2.625v-12.75a2.629 2.629 0 0 0 -2.625-2.625h-9.75a2.629 2.629 0 0 0 -2.625 2.625v12.75a2.629 2.629 0 0 0 2.625 2.625zm-.625-15.375a.625.625 0 0 1 .625-.625h9.75a.625.625 0 0 1 .625.625v12.75a.625.625 0 0 1 -.625.625h-9.75a.625.625 0 0 1 -.625-.625z" fill="#aaa"/>
    <path d="m20.37 1h-9.74a2.629 2.629 0 0 0 -2.421 1.61 1 1 0 1 0 1.842.78.63.63 0 0 1 .579-.39h9.74a.631.631 0 0 1 .63.63v12.74a.631.631 0 0 1 -.63.63h-2.37a1 1 0 0 0 0 2h2.37a2.633 2.633 0 0 0 2.63-2.63v-12.74a2.633 2.633 0 0 0 -2.63-2.63z" fill="#fff"/>
</svg>